<svg width="312" height="112" viewBox="0 0 312 112" fill="none" xmlns="http://www.w3.org/2000/svg">
<path d="M54.9473 0.731576L50.9637 5.38279H24.2441L20.04 0.478516L54.9473 0.731576Z" fill="#3FB65A"/>
<path d="M2.76734 33.6104L0 36.8386V83.705L2.93263 87.1245L2.76734 33.6104Z" fill="#3FB65A"/>
<path d="M5.75464 103.885H22.0313L28.1365 111.011H12.0647L5.75464 103.885Z" fill="#3FB65A"/>
<path d="M83.2959 111.246L87.5786 104.362H104.335V111.246H83.2959Z" fill="#3FB65A"/>
<path d="M257.053 0.731576L261.037 5.38279H287.756L291.96 0.478516L257.053 0.731576Z" fill="#3FB65A"/>
<path d="M309.233 33.6104L312 36.8386V83.705L309.068 87.1245L309.233 33.6104Z" fill="#3FB65A"/>
<path d="M306.245 103.885H289.969L283.863 111.011H299.931L306.245 103.885Z" fill="#3FB65A"/>
<path d="M233.297 111.246L229.015 104.362H104.336V111.246H233.297Z" fill="#3FB65A"/>
<g opacity="0.2">
<path d="M65.7245 0.731445L55.9073 12.1823H17.0126L7.45512 23.3238V61.8438L3.05444 66.9731V11.5805L12.3205 0.770853L65.7245 0.731445Z" fill="#3FB65A"/>
</g>
<g opacity="0.2">
<path d="M246.393 0.731445L256.21 12.1823H295.109L304.667 23.3238V61.8438L309.067 66.9731V11.5805L299.797 0.770853L246.393 0.731445Z" fill="#3FB65A"/>
</g>
<g opacity="0.2">
<path d="M205.385 111.247L215.202 99.8013H295.109L304.667 88.6542V50.1398L309.067 45.0049V100.403L299.797 111.207L205.385 111.247Z" fill="#3FB65A"/>
</g>
<g opacity="0.2">
<path d="M112.185 111.247L102.368 99.8013H17.0126L7.45512 88.6542V50.1398L3.05444 45.0049V100.403L12.3205 111.207L112.185 111.247Z" fill="#3FB65A"/>
</g>
<path d="M300.203 112H11.8009L2.12158 100.712V11.2878L11.8009 0H300.203L309.882 11.2878V100.712L300.203 112ZM12.3364 110.493H299.668L308.587 100.088V11.8895L299.668 1.48479H12.3364L3.41261 11.8895V100.088L12.3364 110.493Z" fill="#262832"/>
</svg>
